<svg width="145" height="26" viewBox="0 0 145 26" fill="none" xmlns="http://www.w3.org/2000/svg">
<path d="M16.3005 10.3531C16.3 14.3608 14.7076 18.2041 11.8735 21.0377C9.03946 23.8713 5.19588 25.4631 1.18824 25.463C1.13269 25.463 1.07811 25.463 1.02209 25.4606V20.3702C1.06957 20.3726 1.11703 20.3726 1.16451 20.3726C2.48364 20.3726 3.78988 20.1129 5.00863 19.6081C6.22738 19.1034 7.33477 18.3635 8.26759 17.4308C9.20041 16.498 9.94037 15.3907 10.4452 14.172C10.9501 12.9533 11.21 11.6471 11.2101 10.328C11.2101 10.2805 11.2101 10.233 11.2077 10.1855H16.3005C16.3029 10.2411 16.3029 10.2957 16.3029 10.3517" fill="black"/>
<path d="M15.2798 0.0023723V5.0966C15.2324 5.09422 15.1877 5.09422 15.1412 5.09422C13.8221 5.09416 12.5158 5.35392 11.2971 5.85868C10.0783 6.36343 8.97094 7.1033 8.03813 8.03602C7.10531 8.96875 6.36533 10.0761 5.86047 11.2948C5.3556 12.5135 5.09571 13.8197 5.09565 15.1388C5.09565 15.1863 5.09565 15.2338 5.09803 15.2812H0.00237611C2.50438e-06 15.2257 1.86431e-07 15.1697 1.86431e-07 15.1141C-0.000311545 13.1295 0.390315 11.1642 1.14958 9.3305C1.90885 7.49681 3.0219 5.83064 4.42513 4.42714C5.82837 3.02364 7.49433 1.91029 9.32787 1.15068C11.1614 0.391066 13.1266 6.23217e-05 15.1113 0C15.1673 0 15.2243 -1.3038e-06 15.2798 0.0023723Z" fill="black"/>
<path d="M143.319 6.33376H143.691V5.79922L143.683 5.41945L143.699 5.41565L143.838 5.77169L144.028 6.23027H144.29L144.48 5.77169L144.619 5.41945L144.636 5.42372L144.632 5.80017V6.33233H145V4.90105H144.501L144.316 5.34301L144.174 5.69526H144.157L144.015 5.34301L143.831 4.90105H143.319V6.33376ZM142.357 6.33376H142.733V5.24475H143.126V4.90105H141.959V5.24475H142.357V6.33376ZM141.934 21.6454C142.494 21.6554 143.036 21.4426 143.439 21.0537C143.843 20.6648 144.075 20.1316 144.086 19.5713C144.082 19.0042 143.853 18.4617 143.45 18.0631C143.046 17.6644 142.501 17.4422 141.934 17.4451C141.364 17.4413 140.816 17.6626 140.408 18.0606C140 18.4587 139.766 19.0016 139.756 19.5713C139.773 20.1343 140.011 20.668 140.418 21.0564C140.826 21.4448 141.371 21.6565 141.934 21.6454ZM133.3 11.7418H135.009V21.4123H138.276V11.7413H140.117V8.83743H138.277V4.50798H135.011V8.83743H133.302L133.3 11.7418ZM122.411 15.1123C122.436 14.4306 122.661 13.7714 123.058 13.2167C123.455 12.662 124.007 12.2364 124.644 11.9928C125.281 11.7492 125.976 11.6985 126.641 11.8469C127.307 11.9953 127.915 12.3363 128.388 12.8274C128.861 13.3185 129.18 13.938 129.304 14.6088C129.427 15.2796 129.351 15.972 129.084 16.5998C128.818 17.2276 128.372 17.763 127.803 18.1393C127.234 18.5157 126.567 18.7164 125.885 18.7164C125.418 18.717 124.955 18.6232 124.525 18.4406C124.094 18.258 123.705 17.9904 123.381 17.6539C123.056 17.3173 122.803 16.9187 122.637 16.482C122.47 16.0453 122.393 15.5794 122.411 15.1123ZM125.885 21.8016C127.206 21.7914 128.494 21.3904 129.587 20.6492C130.68 19.9079 131.53 18.8597 132.028 17.6365C132.526 16.4133 132.652 15.07 132.388 13.7758C132.124 12.4817 131.483 11.2946 130.545 10.3643C129.607 9.43391 128.416 8.80194 127.119 8.548C125.823 8.29406 124.481 8.42952 123.262 8.9373C122.042 9.44508 121.001 10.3025 120.268 11.4014C119.535 12.5002 119.144 13.7915 119.144 15.1123C119.134 15.998 119.301 16.8767 119.637 17.6964C119.973 18.516 120.47 19.2599 121.099 19.8838C121.727 20.5077 122.475 20.9989 123.297 21.3284C124.119 21.6578 124.999 21.8187 125.885 21.8016ZM107.762 15.1118C107.784 14.432 108.006 13.7737 108.399 13.219C108.793 12.6643 109.341 12.2376 109.975 11.9923C110.61 11.7469 111.302 11.6936 111.967 11.8391C112.631 11.9845 113.238 12.3223 113.712 12.8103C114.186 13.2983 114.506 13.9149 114.631 14.5833C114.757 15.2518 114.684 15.9424 114.42 16.5693C114.156 17.1961 113.713 17.7315 113.147 18.1085C112.581 18.4856 111.916 18.6877 111.236 18.6898C110.77 18.6943 110.307 18.6041 109.877 18.4245C109.447 18.245 109.057 17.9799 108.732 17.6453C108.407 17.3107 108.154 16.9136 107.987 16.4781C107.82 16.0426 107.744 15.5778 107.762 15.1118ZM104.573 11.4826V25.69H107.839V19.597C108.307 20.2592 108.929 20.7969 109.653 21.163C110.376 21.5291 111.178 21.7125 111.988 21.6971C115.54 21.6971 117.951 18.8194 117.951 15.1118C117.951 11.4565 115.566 8.5526 111.988 8.5526C111.127 8.53314 110.275 8.74097 109.52 9.15517C108.764 9.56936 108.131 10.1753 107.684 10.912V8.83743H104.573V11.4826ZM98.1167 21.8011C101.072 21.8011 103.069 19.9862 103.069 17.5229C103.069 15.1118 101.202 14.0489 99.2318 13.6858L98.0137 13.4527C97.1061 13.2452 96.3802 12.986 96.3802 12.2597C96.3802 11.6373 96.9764 11.0411 97.962 11.0411C98.4896 11.0089 99.0103 11.1742 99.4228 11.5049C99.8352 11.8355 100.11 12.3078 100.193 12.8298L100.245 12.8559C100.971 12.1636 101.938 11.7822 102.941 11.793L102.967 11.7413C102.5 9.95255 100.763 8.42252 98.0151 8.42252C95.163 8.42252 93.2205 10.2374 93.2205 12.441C93.2205 14.4116 94.4908 15.6302 97.0837 16.1486L98.328 16.4078C99.2352 16.6152 99.8836 16.9006 99.8836 17.6525C99.8836 18.4562 99.314 19.0767 98.1466 19.0767C97.501 19.1098 96.8659 18.9031 96.3634 18.4964C95.8609 18.0896 95.5266 17.5114 95.4246 16.873L95.3467 16.8213C94.9909 17.1691 94.5691 17.4424 94.1061 17.6249C93.6431 17.8074 93.1483 17.8956 92.6508 17.8842V17.9359C93.1175 20.3214 95.2694 21.7992 98.121 21.7992L98.1167 21.8011ZM85.2086 11.7399H86.9176V21.4104H90.1841V11.7413H92.0251V8.83743H90.1832V4.50798H86.9166V8.83743H85.2077L85.2086 11.7399ZM75.0192 13.6065C75.1778 12.8991 75.5776 12.2691 76.1501 11.8244C76.7226 11.3798 77.4321 11.1483 78.1566 11.1697C78.8917 11.1277 79.6175 11.3504 80.2025 11.7974C80.7876 12.2444 81.1931 12.8862 81.3458 13.6065H75.0192ZM78.3636 21.7992C80.9822 21.7992 83.238 20.6599 84.3527 18.2212V18.1434C83.3303 18.0869 82.3712 17.6306 81.6824 16.873H81.6307C81.3905 17.5178 80.953 18.0704 80.3804 18.4521C79.8079 18.8338 79.1295 19.0251 78.4419 18.9988C77.6037 19.0344 76.7816 18.7609 76.1316 18.2305C75.4816 17.7 75.049 16.9494 74.9157 16.1211H84.4305C85.0002 11.869 82.4339 8.44674 78.1818 8.44674C74.4742 8.44674 71.7783 11.4285 71.7783 15.1099C71.7783 18.8175 74.5004 21.7992 78.3636 21.7992ZM61.0971 13.6065C61.2556 12.8992 61.6554 12.2691 62.2278 11.8245C62.8002 11.3798 63.5095 11.1483 64.234 11.1697C64.9691 11.1276 65.695 11.3503 66.28 11.7973C66.8651 12.2443 67.2706 12.8862 67.4232 13.6065H61.0971ZM64.4415 21.7992C67.06 21.7992 69.3159 20.6599 70.4306 18.2212V18.1434C69.4082 18.0871 68.449 17.6308 67.7603 16.873H67.7085C67.4683 17.5179 67.0306 18.0705 66.458 18.4522C65.8854 18.8338 65.207 19.0251 64.5193 18.9988C63.6812 19.0342 62.8592 18.7608 62.2093 18.2303C61.5594 17.6999 61.1268 16.9493 60.9936 16.1211H70.5084C71.0781 11.869 68.5122 8.44674 64.2602 8.44674C60.5526 8.44674 57.8562 11.4285 57.8562 15.1099C57.8562 18.8175 60.5782 21.7992 64.4415 21.7992ZM40.9262 21.4099H45.1265L47.512 13.399H47.616L49.8975 21.4099H54.1225L57.672 8.83743H54.1975L51.9421 17.6525H51.8125L49.2457 8.83743H45.8752L43.3084 17.6008H43.2044L40.9732 8.83743H37.3696L40.9262 21.4099ZM30.8669 21.7992C34.8071 21.7992 37.3744 19.1806 37.3744 15.9654C37.3744 12.6988 35.3782 11.1707 32.2407 10.4952L30.7112 10.1581C29.1555 9.82105 28.0153 9.17306 28.0153 8.0323C28.0153 6.89155 28.9486 5.98436 30.5313 5.98436C31.3366 5.96461 32.1204 6.2459 32.7294 6.77325C33.3384 7.3006 33.7288 8.03611 33.8244 8.83601L33.8762 8.86164C34.7829 8.14106 35.9066 7.74824 37.0648 7.747L37.1166 7.69525C36.4686 4.73965 33.9796 2.87305 30.6348 2.87305C27.0829 2.87305 24.4634 5.28415 24.4634 8.29198C24.4634 11.0928 26.3561 12.8018 29.6488 13.4773L31.2044 13.8144C32.9134 14.2037 33.8491 14.7994 33.8491 16.122C33.8491 17.4185 32.8118 18.507 30.9974 18.507C30.0114 18.5523 29.0464 18.2126 28.3062 17.5596C27.566 16.9066 27.1086 15.9914 27.0307 15.0074L26.9528 14.9813C26.055 15.8071 24.9222 16.3327 23.7119 16.4852L23.6863 16.5369C24.3604 19.9592 27.3416 21.8001 30.8679 21.8001" fill="black"/>
</svg>
